<svg width="120" height="120" viewBox="0 0 120 120" fill="none" xmlns="http://www.w3.org/2000/svg">
<circle cx="60" cy="60" r="60" fill="#101C54"/>
<path d="M59.8089 18C36.7554 18 18.0002 36.7553 18.0002 59.8087C17.9712 70.5294 22.0893 80.8459 29.4928 88.5996C36.3115 82.7144 47.5409 79.2262 59.8089 79.2262C72.0769 79.2262 83.3062 82.7143 90.125 88.5996C97.5285 80.8459 101.647 70.5294 101.618 59.8087C101.618 36.7553 82.8624 18 59.8089 18V18ZM36.8588 69.9109L33.3584 71.9317C33.1637 72.0454 32.9472 72.1169 32.723 72.1414C32.4988 72.1659 32.272 72.1429 32.0573 72.0739C31.8462 72.0089 31.6511 71.9001 31.4848 71.7546C31.3185 71.6092 31.1846 71.4304 31.0919 71.2298C29.14 67.0481 28.1339 62.4874 28.1454 57.8726C28.1454 56.3801 28.25 54.8893 28.4583 53.4114L35.6018 54.67C35.4625 55.7319 35.3926 56.8017 35.3926 57.8726C35.3857 61.3056 36.1096 64.7007 37.5164 67.8321C37.6846 68.1984 37.7104 68.6142 37.5888 68.9984C37.4672 69.3827 37.207 69.708 36.8588 69.9109V69.9109ZM35.9656 52.6026L28.8206 51.3438C30.2095 44.7631 33.657 38.7954 38.6638 34.3047L43.3316 39.8689C39.6287 43.2577 37.0571 47.7031 35.9656 52.6026L35.9656 52.6026ZM40.2713 32.9546C45.5642 28.8081 52.0386 26.4521 58.7585 26.2274V33.4798C53.7438 33.7001 48.9185 35.4594 44.9388 38.5185L40.2713 32.9546ZM59.8081 71.3392C58.8768 71.3392 57.9664 71.063 57.192 70.5456C56.4176 70.0282 55.8141 69.2928 55.4577 68.4323C55.1013 67.5719 55.008 66.6251 55.1897 65.7117C55.3714 64.7983 55.8199 63.9592 56.4785 63.3007C57.137 62.6421 57.976 62.1937 58.8895 62.012C59.8029 61.8303 60.7497 61.9235 61.6101 62.2799C62.4705 62.6364 63.206 63.2399 63.7234 64.0143C64.2408 64.7886 64.517 65.699 64.517 66.6304C64.5156 67.8788 64.019 69.0757 63.1362 69.9585C62.2534 70.8412 61.0565 71.3378 59.8081 71.3392V71.3392ZM66.0546 63.9343C65.691 63.102 65.1662 62.3499 64.5104 61.7214C63.8546 61.093 63.0809 60.6006 62.2338 60.2728L73.5762 52.687L66.0546 63.9343ZM60.8577 33.4798V26.2274C67.5777 26.4522 74.0521 28.8081 79.345 32.9546L74.6775 38.5185C70.6977 35.4594 65.8725 33.7001 60.8577 33.4798ZM76.2847 39.8688L80.9525 34.3047C85.9593 38.7954 89.4068 44.7631 90.7956 51.3438L83.6506 52.6026C82.559 47.7031 79.9876 43.2577 76.2847 39.8688ZM88.5243 71.2298C88.4317 71.4304 88.2978 71.6092 88.1315 71.7546C87.9652 71.9001 87.7701 72.0089 87.559 72.0739C87.3443 72.1428 87.1175 72.1658 86.8933 72.1413C86.6692 72.1168 86.4527 72.0454 86.2579 71.9317L82.7575 69.9109C82.4093 69.708 82.1491 69.3827 82.0275 68.9984C81.9059 68.6142 81.9317 68.1984 82.0998 67.8321C83.5066 64.7007 84.2306 61.3056 84.2236 57.8726C84.2236 56.8017 84.1538 55.7319 84.0144 54.67L91.1579 53.4114C91.3662 54.8893 91.4708 56.3801 91.4708 57.8726C91.4823 62.4874 90.4763 67.0481 88.5243 71.2298V71.2298Z" fill="white"/>
<path d="M30.9803 90.0893C38.7538 97.4894 49.0754 101.617 59.8081 101.617C70.5407 101.617 80.8624 97.4894 88.6359 90.0893C82.2443 84.6618 71.337 81.3247 59.8081 81.3247C48.2792 81.3247 37.3719 84.6618 30.9803 90.0893V90.0893Z" fill="white"/>
</svg>
