<svg width="120" height="120" viewBox="0 0 120 120" fill="none" xmlns="http://www.w3.org/2000/svg">
<circle cx="60" cy="60" r="60" fill="#101C54"/>
<path d="M95.9879 32.7138C95.3397 32.0684 94.4606 31.7056 93.5439 31.7056H82.8598C79.0658 4.08799 39.924 4.1083 36.1406 31.7056H25.4567C23.5999 31.6691 21.964 33.2986 22.0006 35.1477L22.0013 95.5578C22.0013 97.4588 23.5488 99 25.4574 99H93.543C95.4518 99 96.9991 97.4589 96.9991 95.5578L97 35.1477C97 34.2349 96.6359 33.3594 95.9879 32.7138ZM59.5002 17.7648C67.7661 17.7648 74.6392 23.817 75.8872 31.7056H43.1132C44.3612 23.817 51.2344 17.7648 59.5002 17.7648ZM90.0869 92.1157H28.9135L28.913 38.5899H35.9988V48.9164C36.1812 53.4835 42.7301 53.48 42.911 48.9164V38.5899H76.0898V48.9164C76.2723 53.4835 82.8211 53.48 83.002 48.9164V38.5899H90.0879L90.0869 92.1157Z" fill="white"/>
<path d="M63.0036 86.9241C64.2844 86.9241 65.4014 85.8071 65.4014 84.5263V78.9264H67.0024C67.9632 78.9264 68.6035 78.2859 68.6035 77.3254V61.3313H49.4062V77.3255C49.4062 78.2861 50.0466 78.9265 51.0072 78.9265H52.6084V84.5264C52.6084 85.8073 53.7251 86.9242 55.0062 86.9242C56.2869 86.9242 57.4037 85.8073 57.4037 84.5264V78.9265H60.6059V84.5264C60.6058 85.8071 61.7228 86.9241 63.0036 86.9241Z" fill="white"/>
<path d="M72.6025 77.3255C73.8833 77.3255 75 76.2087 75 74.9277V63.7281C75 62.454 73.8833 61.3313 72.6025 61.3313C71.3215 61.3313 70.2047 62.454 70.2047 63.7281V74.9277C70.2047 76.2085 71.3214 77.3255 72.6025 77.3255Z" fill="white"/>
<path d="M45.4073 77.3255C46.6883 77.3255 47.8051 76.2087 47.8051 74.9277V63.7281C47.8051 62.454 46.6884 61.3313 45.4073 61.3313C44.1265 61.3313 43.0098 62.454 43.0098 63.7281V74.9277C43.0098 76.2085 44.1265 77.3255 45.4073 77.3255Z" fill="white"/>
<path d="M66.6821 48.8583C66.362 48.5362 65.8855 48.5362 65.5654 48.8583L63.418 50.9985L63.3189 51.0975C62.0456 50.4598 60.6181 50.1414 59.0283 50.1384C59.0205 50.1384 59.0128 50.1381 59.005 50.1381H59.0048C58.9967 50.1381 58.9893 50.1384 58.9812 50.1384C57.3916 50.1414 55.964 50.4598 54.6908 51.0975L54.5915 50.9985L52.4442 48.8583C52.1239 48.5362 51.6476 48.5362 51.3275 48.8583C51.0072 49.1786 51.0072 49.654 51.3275 49.9741L53.4047 52.0517C52.7354 52.4986 52.1285 53.0454 51.6007 53.6709C50.3371 55.1686 49.5312 57.1179 49.4203 59.2299C49.4193 59.2519 49.4172 59.2736 49.4161 59.2956C49.4094 59.4394 49.4062 59.5839 49.4062 59.729H68.6035C68.6035 59.5839 68.6 59.4394 68.5935 59.2956C68.5925 59.2736 68.5903 59.2519 68.589 59.2299C68.4785 57.1179 67.6722 55.1685 66.4087 53.671C65.8811 53.0456 65.2739 52.4987 64.6046 52.0518L66.6821 49.9742C67.0024 49.654 67.0024 49.1786 66.6821 48.8583ZM55.0031 56.9336C54.3407 56.9336 53.8037 56.3966 53.8037 55.7342C53.8037 55.0718 54.3407 54.5347 55.0031 54.5347C55.6655 54.5347 56.2025 55.0718 56.2025 55.7342C56.2025 56.3966 55.6655 56.9336 55.0031 56.9336ZM63.0065 56.9336C62.3441 56.9336 61.8071 56.3966 61.8071 55.7342C61.8071 55.0718 62.3441 54.5347 63.0065 54.5347C63.6689 54.5347 64.2059 55.0718 64.2059 55.7342C64.2059 56.3966 63.6689 56.9336 63.0065 56.9336Z" fill="white"/>
</svg>
