<svg width="120" height="120" viewBox="0 0 120 120" fill="none" xmlns="http://www.w3.org/2000/svg">
<circle cx="60" cy="60" r="60" fill="#101C54"/>
<path d="M99.5002 49.4357C99.2473 49.4965 99.0288 49.6548 98.8923 49.8762C98.7557 50.0976 98.7124 50.364 98.7716 50.6172C99.4893 53.6635 99.8527 56.7824 99.8547 59.912C99.842 70.5016 95.6297 80.6538 88.1417 88.1418C80.6537 95.6298 70.5015 99.8421 59.9119 99.8548C51.2144 99.8852 42.7504 97.0423 35.8347 91.7677C36.7633 90.3832 37.1343 88.6989 36.8734 87.0524C36.6125 85.4059 35.739 83.9188 34.4279 82.8892C33.1168 81.8595 31.4651 81.3634 29.8036 81.5002C28.1422 81.637 26.5939 82.3967 25.4689 83.6269C24.3439 84.8572 23.7255 86.4672 23.7374 88.1342C23.7494 89.8012 24.391 91.4021 25.5335 92.6161C26.676 93.83 28.2351 94.5673 29.8984 94.6803C31.5616 94.7932 33.2061 94.2734 34.5022 93.225C41.7837 98.8307 50.7226 101.856 59.9119 101.824C66.2425 101.817 72.4895 100.378 78.1849 97.614C83.8803 94.8501 88.8764 90.8333 92.799 85.8644C96.7216 80.8955 99.4689 75.1034 100.835 68.922C102.201 62.7406 102.151 56.3301 100.688 50.1709C100.659 50.0444 100.605 49.9249 100.529 49.8194C100.453 49.7139 100.358 49.6244 100.247 49.556C100.137 49.4877 100.014 49.4419 99.8857 49.4212C99.7575 49.4006 99.6265 49.4055 99.5002 49.4357V49.4357Z" fill="white"/>
<path d="M19.9693 59.9121C19.9697 52.8072 21.8651 45.831 25.4601 39.7027C29.0551 33.5744 34.2196 28.5159 40.421 25.0486C46.6225 21.5814 53.6365 19.8309 60.7399 19.9777C67.8433 20.1245 74.779 22.1632 80.8319 25.8837C80.2071 27.2203 80.1071 28.7428 80.5517 30.1497C80.9963 31.5565 81.953 32.7451 83.2324 33.48C84.5118 34.2149 86.0205 34.4425 87.4598 34.1178C88.899 33.793 90.1638 32.9396 91.0037 31.7265C91.8435 30.5134 92.1971 29.0291 91.9945 27.5677C91.7918 26.1062 91.0477 24.7742 89.9095 23.8353C88.7713 22.8965 87.322 22.4194 85.8487 22.4985C84.3754 22.5776 82.9855 23.2071 81.9543 24.2623C75.6053 20.3374 68.3233 18.1792 60.8609 18.0107C53.3986 17.8422 46.0266 19.6695 39.5068 23.3038C32.987 26.938 27.5561 32.2474 23.7751 38.6833C19.9942 45.1191 18.0005 52.4478 18 59.9121C17.9965 62.4706 18.2294 65.024 18.6958 67.5396C18.7359 67.7663 18.8546 67.9715 19.0311 68.1192C19.2076 68.2669 19.4306 68.3476 19.6608 68.347C19.7204 68.347 19.7798 68.3404 19.838 68.3273C20.0947 68.281 20.3225 68.1347 20.4714 67.9205C20.6203 67.7064 20.6781 67.4419 20.6323 67.1852C20.1898 64.7861 19.9679 62.3516 19.9693 59.9121V59.9121Z" fill="white"/>
<path d="M54.0042 53.4071V53.9979H65.8196V53.4071C65.7277 45.4252 54.0961 45.4252 54.0042 53.4071Z" fill="white"/>
<path d="M87.4485 39.4517C76.3682 39.5633 65.7081 32.7169 61.6318 29.763C61.1312 29.4014 60.5295 29.2068 59.912 29.2068C59.2945 29.2068 58.6927 29.4014 58.1922 29.763C54.1158 32.7169 43.4294 39.537 32.3755 39.4517C31.9829 39.4478 31.5934 39.5216 31.2295 39.6688C30.8655 39.8161 30.5343 40.0338 30.2549 40.3096C29.9755 40.5854 29.7533 40.9137 29.6013 41.2756C29.4493 41.6376 29.3704 42.0261 29.3691 42.4187C29.3756 57.5752 32.4083 79.2566 58.5795 92.503C58.9921 92.7133 59.4488 92.823 59.912 92.823C60.3752 92.823 60.8318 92.7133 61.2445 92.503C87.4157 79.2566 90.4483 57.5752 90.4549 42.4187C90.449 41.6268 90.1291 40.8696 89.5654 40.3133C89.0018 39.757 88.2404 39.4471 87.4485 39.4517V39.4517ZM70.7428 69.4235C70.7428 70.7292 70.2241 71.9814 69.3008 72.9046C68.3776 73.8279 67.1254 74.3466 65.8197 74.3466H54.0043C52.6986 74.3466 51.4464 73.8279 50.5231 72.9046C49.5998 71.9814 49.0812 70.7292 49.0812 69.4235V58.9209C49.0817 57.9634 49.3613 57.0268 49.886 56.2259C50.4106 55.4249 51.1575 54.7943 52.035 54.4113V53.3939C52.1532 42.8585 67.6708 42.8585 67.7889 53.3939V54.4113C68.6665 54.7943 69.4133 55.4249 69.938 56.2259C70.4626 57.0268 70.7423 57.9634 70.7428 58.9209V69.4235Z" fill="white"/>
<path d="M61.5241 63.0419C61.5095 62.9538 61.5136 62.8636 61.5362 62.7771C61.5589 62.6907 61.5995 62.6101 61.6554 62.5404C61.8752 62.2224 62.0039 61.8504 62.0275 61.4645C62.0511 61.0787 61.9687 60.6937 61.7892 60.3513C61.6097 60.0089 61.3399 59.7222 61.0092 59.5221C60.6784 59.3221 60.2992 59.2163 59.9126 59.2163C59.526 59.2163 59.1468 59.3221 58.816 59.5221C58.4852 59.7222 58.2155 60.0089 58.036 60.3513C57.8565 60.6937 57.774 61.0787 57.7976 61.4645C57.8212 61.8504 57.9499 62.2224 58.1698 62.5404C58.2255 62.6093 58.2659 62.6892 58.2885 62.7748C58.3112 62.8605 58.3154 62.9499 58.3011 63.0373C58.1468 63.806 57.7103 66.0036 57.4025 67.5291C57.365 67.7194 57.3702 67.9156 57.4177 68.1036C57.4651 68.2917 57.5536 68.4668 57.6768 68.6166C57.8 68.7663 57.9548 68.8869 58.1302 68.9697C58.3056 69.0525 58.4971 69.0954 58.691 69.0953H61.1329C61.3271 69.0954 61.519 69.0524 61.6946 68.9693C61.8702 68.8863 62.0252 68.7653 62.1484 68.6151C62.2716 68.4649 62.36 68.2892 62.407 68.1007C62.4541 67.9123 62.4588 67.7157 62.4207 67.5252L61.5241 63.0419Z" fill="white"/>
</svg>
