<svg width="120" height="120" viewBox="0 0 120 120" fill="none" xmlns="http://www.w3.org/2000/svg">
<circle cx="60" cy="60" r="60" fill="#101C54"/>
<path d="M59.9119 15C35.1205 15 15 35.1205 15 59.9119C15 84.7033 35.1205 104.824 59.9119 104.824C84.7033 104.824 104.824 84.7033 104.824 59.9119C104.824 35.1205 84.7033 15 59.9119 15ZM80.8708 71.9184L68.7745 59.9119H76.3796C76.3796 50.8397 68.9841 43.4442 59.9119 43.4442C50.8397 43.4442 43.4442 50.8397 43.4442 59.9119C43.4442 68.9841 50.8397 76.3796 59.9119 76.3796V85.362C45.8695 85.362 34.4618 73.9544 34.4618 59.9119C34.4618 45.8695 45.8695 34.4618 59.9119 34.4618C73.9544 34.4618 85.362 45.8695 85.362 59.9119H93.0569L80.8708 71.9184Z" fill="white"/>
</svg>
