<svg width="120" height="120" viewBox="0 0 120 120" fill="none" xmlns="http://www.w3.org/2000/svg">
<circle cx="60" cy="60" r="60" fill="#101C54"/>
<path d="M97.5212 75.2116V33.2125C97.5212 31.9906 96.5306 31 95.3087 31H24.2125C22.9906 31 22 31.9906 22 33.2125V75.2116H97.5212ZM59.0231 66.6718C59.0231 67.8938 58.0325 68.8844 56.8106 68.8844H41.619C40.3971 68.8844 39.4065 67.8938 39.4065 66.6718V55.9972C39.4065 54.7753 40.3971 53.7847 41.619 53.7847H56.8106C58.0325 53.7847 59.0231 54.7753 59.0231 55.9972V66.6718ZM80.0584 68.8844H65.6607C64.4388 68.8844 63.4482 67.8938 63.4482 66.6718C63.4482 65.4499 64.4388 64.4593 65.6607 64.4593H80.0584C81.2803 64.4593 82.271 65.4499 82.271 66.6718C82.271 67.8938 81.2805 68.8844 80.0584 68.8844ZM80.0584 58.2098H65.6607C64.4388 58.2098 63.4482 57.2191 63.4482 55.9972C63.4482 54.7753 64.4388 53.7847 65.6607 53.7847H80.0584C81.2803 53.7847 82.271 54.7753 82.271 55.9972C82.271 57.2191 81.2805 58.2098 80.0584 58.2098ZM80.0584 46.1774H41.619C40.3971 46.1774 39.4065 45.1868 39.4065 43.9649C39.4065 42.743 40.3971 41.7523 41.619 41.7523H80.0584C81.2803 41.7523 82.271 42.743 82.271 43.9649C82.271 45.1868 81.2805 46.1774 80.0584 46.1774Z" fill="white"/>
<path d="M51.148 94.1821V98.0641H50.5106C49.2887 98.0641 48.2981 99.0547 48.2981 100.277C48.2981 101.499 49.2887 102.489 50.5106 102.489H69.0107C70.2326 102.489 71.2232 101.499 71.2232 100.277C71.2232 99.0547 70.2326 98.0641 69.0107 98.0641H68.3733V94.1821H51.148Z" fill="white"/>
<path d="M95.3087 89.6759C96.5306 89.6759 97.5212 88.6853 97.5212 87.4633V79.6367H22V87.4633C22 88.6853 22.9906 89.6759 24.2125 89.6759H95.3087Z" fill="white"/>
<path d="M43.8315 58.2097H54.598V64.4592H43.8315V58.2097Z" fill="white"/>
</svg>
