<svg width="120" height="120" viewBox="0 0 120 120" fill="none" xmlns="http://www.w3.org/2000/svg">
<circle cx="60" cy="60" r="60" fill="#101C54"/>
<path d="M70.1757 60.3766C70.1757 55.1358 65.0391 50.9576 59.5405 52.9161V67.8373C65.0267 69.7912 70.1757 65.6282 70.1757 60.3766Z" fill="white"/>
<path d="M102.081 68.353V52.4003H90.3399C89.722 50.2555 88.8495 48.168 87.7279 46.161L96.0573 37.8289L84.747 26.5186L76.4176 34.848C74.4079 33.7239 72.3204 32.8488 70.1757 32.2361V20.4949H59.5405V47.4319C68.3259 45.6377 75.4932 52.4231 75.4932 60.3766C75.4932 68.3173 68.3399 75.1183 59.5405 73.3213V100.258H70.1757V88.5172C72.3204 87.9044 74.4079 87.0293 76.4176 85.9052L84.747 94.2346L96.0573 82.9243L87.7277 74.5922C88.8494 72.5852 89.7218 70.4975 90.3397 68.353H102.081Z" fill="white"/>
<path d="M54.223 17.9025C51.9591 16.1821 49.2096 15 46.2466 15C38.4456 15 32.5583 21.9446 32.9578 28.7386C26.8926 29.972 22.3176 35.3439 22.3176 41.7651C22.3176 44.1927 22.9874 46.5452 24.2234 48.5886C19.9133 50.7982 17 55.3031 17 60.3766C17 65.45 19.9133 69.9576 24.2234 72.1645C22.9874 74.2106 22.3176 76.5604 22.3176 78.988C22.3176 85.3234 26.7732 90.641 32.9578 91.9313C32.6356 99.0211 38.5457 105.753 46.2466 105.753C49.2096 105.753 51.9591 104.571 54.223 102.851V17.9025ZM41.464 35.3856L45.7118 32.1919C49.9441 37.8288 49.9441 45.7013 45.7118 51.3383L41.464 48.1446C44.2784 44.3875 44.2784 39.1426 41.464 35.3856V35.3856ZM31.3585 61.1737L34.5469 56.9207C38.3066 59.7353 43.5515 59.7353 47.3112 56.9207L50.4996 61.1737C47.685 63.2872 44.3045 64.344 40.929 64.344C37.5536 64.344 34.1731 63.2872 31.3585 61.1737ZM45.7117 88.5613L41.4638 85.3675C44.2784 81.6105 44.2784 76.3656 41.4638 72.6086L45.7117 69.4148C49.9439 75.0518 49.9439 82.9243 45.7117 88.5613Z" fill="white"/>
</svg>
