<svg width="120" height="120" viewBox="0 0 120 120" fill="none" xmlns="http://www.w3.org/2000/svg">
<circle cx="60" cy="60" r="60" fill="#101C54"/>
<path d="M59.7568 20C37.8005 20 20 37.8005 20 59.7568C20 81.7131 37.8005 99.5135 59.7568 99.5135C81.7131 99.5135 99.5135 81.7131 99.5135 59.7568C99.5135 37.8005 81.7131 20 59.7568 20ZM58.2426 56.2579L56.2579 58.2426C55.923 58.5774 55.4688 58.7654 54.9953 58.7654C54.5217 58.7654 54.0676 58.5774 53.7327 58.2426L47.7987 52.3101L45.8574 56.3309C45.2471 57.595 43.3819 57.494 42.958 56.1554C42.9502 56.1321 42.9425 56.1072 42.9362 56.0824L38.8456 40.8195C38.7725 40.5465 38.7725 40.259 38.8457 39.9859C38.9189 39.7129 39.0626 39.4639 39.2625 39.264C39.4624 39.0642 39.7113 38.9204 39.9844 38.8472C40.2574 38.7741 40.5449 38.7741 40.8179 38.8472L56.0808 42.9378L56.1538 42.9595C57.4925 43.3835 57.5934 45.2487 56.3293 45.859L52.3101 47.7987L58.2426 53.7311C58.4086 53.897 58.5403 54.0939 58.6301 54.3107C58.72 54.5275 58.7662 54.7598 58.7662 54.9945C58.7662 55.2292 58.72 55.4615 58.6301 55.6783C58.5403 55.8951 58.4086 56.092 58.2426 56.2579V56.2579ZM78.694 80.6663L63.4312 76.5757L63.3582 76.554C62.0195 76.13 61.9185 74.2649 63.1827 73.6546L67.2112 71.7149L61.2787 65.7824C60.9439 65.4475 60.7559 64.9933 60.7559 64.5198C60.7559 64.0463 60.9439 63.5921 61.2787 63.2572L63.2634 61.2725C63.5983 60.9377 64.0525 60.7497 64.526 60.7497C64.9996 60.7497 65.4537 60.9377 65.7886 61.2725L71.7149 67.2112L73.6561 63.1904C74.2664 61.9263 76.1316 62.0272 76.5556 63.3659C76.5556 63.3892 76.5711 63.4141 76.5773 63.4389L80.6679 78.7018C80.7395 78.9745 80.7382 79.2612 80.6642 79.5332C80.5902 79.8053 80.4461 80.0532 80.2462 80.252C80.0464 80.4509 79.7979 80.5939 79.5255 80.6666C79.2531 80.7393 78.9664 80.7392 78.694 80.6663V80.6663Z" fill="white"/>
</svg>
