<svg width="120" height="120" viewBox="0 0 120 120" fill="none" xmlns="http://www.w3.org/2000/svg">
<circle cx="60" cy="60" r="60" fill="#101C54"/>
<path d="M90.2681 74.2705C90.0338 73.5238 89.5725 72.8705 88.9496 72.4031C88.3267 71.9358 87.5739 71.6781 86.7978 71.6667C86.3317 71.6663 85.8701 71.7595 85.4399 71.9408L75.1045 76.2347C69.6863 78.5065 63.8768 79.676 58.0096 79.676C52.1423 79.676 46.3329 78.5065 40.9147 76.2347L30.5943 71.9408C30.029 71.7289 29.4212 71.6586 28.823 71.736C28.2249 71.8133 27.6542 72.036 27.1601 72.3849C26.666 72.7338 26.2632 73.1985 25.9862 73.7391C25.7093 74.2797 25.5664 74.8801 25.57 75.4886C25.5652 76.1779 25.7467 76.8554 26.095 77.4483C26.4433 78.0412 26.9451 78.5271 27.5465 78.8537L44.4604 87.9897C44.9824 88.2711 45.4109 88.7011 45.6926 89.2263C45.9742 89.7515 46.0967 90.3488 46.0446 90.9437L44.9734 106.597C44.9589 106.805 44.9871 107.015 45.0564 107.212C45.1257 107.409 45.2346 107.59 45.3762 107.743C45.5177 107.896 45.689 108.018 45.8793 108.101C46.0696 108.184 46.2749 108.226 46.4822 108.226H69.537C69.7443 108.226 69.9495 108.184 70.1398 108.101C70.3301 108.018 70.5014 107.896 70.643 107.743C70.7846 107.59 70.8934 107.409 70.9627 107.212C71.032 107.015 71.0603 106.805 71.0458 106.597L69.9745 90.9589C69.9354 90.364 70.065 89.7702 70.3483 89.2471C70.6315 88.7239 71.0567 88.293 71.5739 88.0049L88.4877 78.8689C89.269 78.432 89.8745 77.7333 90.1996 76.8937C90.5246 76.0541 90.5489 75.1262 90.2681 74.2705V74.2705Z" fill="white"/>
<path d="M58.4731 77.1504C63.5209 77.1504 67.6129 73.0584 67.6129 68.0106C67.6129 62.9629 63.5209 58.8708 58.4731 58.8708C53.4253 58.8708 49.3333 62.9629 49.3333 68.0106C49.3333 73.0584 53.4253 77.1504 58.4731 77.1504Z" fill="white"/>
<path d="M97.3693 42.3456L105.895 35.337C105.928 35.3083 105.954 35.273 105.973 35.2334C105.991 35.1938 106 35.1509 106 35.1075C106 35.0641 105.991 35.0211 105.973 34.9816C105.954 34.942 105.928 34.9067 105.895 34.8779L97.3693 27.8693C97.3234 27.8306 97.267 27.8058 97.207 27.7982C97.147 27.7905 97.0861 27.8003 97.0317 27.8263C96.9772 27.8523 96.9317 27.8934 96.9006 27.9445C96.8696 27.9957 96.8544 28.0546 96.8568 28.1142V31.7409C96.8568 31.8221 96.8241 31.8999 96.7659 31.9573C96.7076 32.0147 96.6286 32.047 96.5462 32.047H82.8805C82.6657 32.0463 82.453 32.0895 82.256 32.174C82.0591 32.2584 81.882 32.3822 81.736 32.5375C81.5901 32.6929 81.4784 32.8763 81.4081 33.0764C81.3378 33.2764 81.3104 33.4886 81.3276 33.6996V35.1075C81.3276 35.1075 81.3276 36.0409 81.3276 36.5153C81.3104 36.7263 81.3378 36.9386 81.4081 37.1386C81.4784 37.3386 81.5901 37.5221 81.736 37.6774C81.882 37.8328 82.0591 37.9566 82.256 38.041C82.453 38.1254 82.6657 38.1687 82.8805 38.168H96.5462C96.6286 38.168 96.7076 38.2002 96.7659 38.2576C96.8241 38.315 96.8568 38.3929 96.8568 38.4741V42.1008C96.8544 42.1603 96.8696 42.2193 96.9006 42.2704C96.9317 42.3216 96.9772 42.3626 97.0317 42.3886C97.0861 42.4146 97.147 42.4244 97.207 42.4168C97.267 42.4091 97.3234 42.3844 97.3693 42.3456V42.3456Z" fill="white"/>
<path d="M50.3244 28.5856C51.6112 26.7312 53.4541 25.3373 55.585 24.6068C57.7159 23.8763 60.0235 23.8472 62.172 24.5239C64.3205 25.2005 66.1977 26.5476 67.5304 28.3689C68.8632 30.1903 69.5818 32.3909 69.5818 34.6505C69.5818 36.9101 68.8632 39.1108 67.5304 40.9321C66.1977 42.7535 64.3205 44.1005 62.172 44.7772C60.0235 45.4538 57.7159 45.4248 55.585 44.6943C53.4541 43.9637 51.6112 42.5699 50.3244 40.7155H42.9355C43.3097 41.7215 43.7751 42.6908 44.3256 43.6115L43.3888 46.644C44.4557 48.0489 45.7059 49.3034 47.1059 50.374L50.128 49.4339C51.6299 50.3068 53.2551 50.9459 54.9482 51.3292L56.3685 54.104C58.1115 54.3668 59.8839 54.3668 61.6269 54.104L63.0473 51.3292C64.7681 50.9138 66.4145 50.2335 67.9279 49.3126L70.95 50.2527C72.3499 49.1821 73.6002 47.9276 74.6671 46.5227L73.7302 43.4902C74.5945 42.002 75.2312 40.392 75.619 38.7141L78.3842 37.2888C78.6461 35.5398 78.6461 33.7613 78.3842 32.0123L75.619 30.587C75.205 28.8602 74.5271 27.2082 73.6094 25.6895L74.5462 22.657C73.4793 21.2522 72.2291 19.9977 70.8291 18.9271L67.807 19.8671C66.3239 18.9999 64.7194 18.361 63.0473 17.9718L61.6269 15.1971C59.8839 14.9343 58.1115 14.9343 56.3685 15.1971L54.9482 17.9718C53.2273 18.3873 51.581 19.0676 50.0675 19.9884L47.0455 19.0484C45.6455 20.119 44.3953 21.3735 43.3284 22.7783L44.2652 25.8108C43.7419 26.6949 43.297 27.6234 42.9355 28.5856H50.3244Z" fill="white"/>
<path d="M21 36.25C21 36.6743 21.1605 37.0811 21.4462 37.381C21.7319 37.681 22.1194 37.8495 22.5234 37.8495H66.063C66.4824 36.8405 66.6989 35.7515 66.6989 34.6506C66.6989 33.5497 66.4824 32.4606 66.063 31.4517H22.5234C22.1194 31.4517 21.7319 31.6202 21.4462 31.9201C21.1605 32.2201 21 32.6269 21 33.0511V36.25Z" fill="white"/>
</svg>
