<svg width="120" height="120" viewBox="0 0 120 120" fill="none" xmlns="http://www.w3.org/2000/svg">
<circle cx="60" cy="60" r="60" fill="#101C54"/>
<path fill-rule="evenodd" clip-rule="evenodd" d="M75.8271 93V62.3664L103 47.0611V76.5219C103 77.2659 102.619 77.9092 101.959 78.2813L75.8271 93ZM43.1401 77.7748H21.2157C19.4399 77.7748 18 76.3701 18 74.6376C18 72.9051 19.4399 71.5004 21.2157 71.5004H43.0257C46.7969 71.5004 46.7969 65.6247 43.0257 65.6247H29.9194C28.1436 65.6247 26.7035 64.22 26.7035 62.4874C26.7035 60.7549 28.1436 59.3502 29.9194 59.3502H40.1702C43.9414 59.3502 43.9414 53.4745 40.1702 53.4745H21.2159C19.44 53.4745 18.0002 52.0698 18.0002 50.3373C18.0002 48.6048 19.44 47.2 21.2159 47.2H43.2442L70.1711 62.3669V93L43.1401 77.7748ZM45.8058 42.2874L72.999 57.6041L100.192 42.2872L73.0511 27H55.2436C53.4677 27 52.0279 28.4047 52.0279 30.1372C52.0279 31.8697 53.4677 33.2745 55.2436 33.2745H59.0069C59.3525 33.2745 59.6422 33.4913 59.7317 33.817C59.821 34.1427 59.6814 34.4718 59.3821 34.6406L45.8058 42.2874ZM44.2579 27C46.0337 27 47.4736 28.4047 47.4736 30.1372C47.4736 31.8697 46.0337 33.2745 44.2579 33.2745H24.7117C22.9358 33.2745 21.4958 31.8697 21.4958 30.1372C21.4958 28.4047 22.9356 27 24.7117 27H44.2579Z" fill="white"/>
</svg>
