<svg width="120" height="120" viewBox="0 0 120 120" fill="none" xmlns="http://www.w3.org/2000/svg">
<circle cx="60" cy="60" r="60" fill="#101C54"/>
<path d="M15 68.1135V73.4155H55.5613L39.6542 99.9252H80.8323L64.9252 73.4155H105.486V68.1135H15Z" fill="white"/>
<path d="M30.9058 62.8117C39.6904 62.8117 46.8117 55.6904 46.8117 46.9058C46.8117 38.1213 39.6904 31 30.9058 31C22.1213 31 15 38.1213 15 46.9058C15 55.6904 22.1213 62.8117 30.9058 62.8117Z" fill="white"/>
<path d="M89.5806 62.8117C98.3652 62.8117 105.486 55.6904 105.486 46.9058C105.486 38.1213 98.3652 31 89.5806 31C80.7961 31 73.6748 38.1213 73.6748 46.9058C73.6748 55.6904 80.7961 62.8117 89.5806 62.8117Z" fill="white"/>
</svg>
