<svg width="120" height="120" viewBox="0 0 120 120" fill="none" xmlns="http://www.w3.org/2000/svg">
<circle cx="60" cy="60" r="60" fill="#101C54"/>
<path d="M48.4216 91.7788H72.3618V97.7639H48.4216V91.7788Z" fill="white"/>
<path d="M34.9552 61.8536C34.9552 56.9024 30.9287 52.876 25.9776 52.876C21.0264 52.876 17 56.9024 17 61.8536C17 66.8047 21.0264 70.8312 25.9776 70.8312C30.9287 70.8312 34.9552 66.8047 34.9552 61.8536ZM21.4888 61.8536C21.4888 59.3743 23.4983 57.3648 25.9776 57.3648C28.4569 57.3648 30.4664 59.3743 30.4664 61.8536C30.4664 64.3329 28.4569 66.3424 25.9776 66.3424C23.4983 66.3424 21.4888 64.3329 21.4888 61.8536Z" fill="white"/>
<path d="M76.8506 100.756H43.9328C41.9816 100.756 40.3178 102.007 39.6998 103.749H81.0835C80.4656 102.007 78.8017 100.756 76.8506 100.756Z" fill="white"/>
<path d="M72.3618 31.9627H75.3543C76.1803 31.9627 76.8506 31.2909 76.8506 30.4664V24.4814C76.8506 23.6569 76.1803 22.9851 75.3543 22.9851H72.3618C71.5359 22.9851 70.8655 23.6569 70.8655 24.4814V30.4664C70.8655 31.2909 71.5359 31.9627 72.3618 31.9627Z" fill="white"/>
<path d="M39.444 37.9477H55.9029V43.0949C55.9029 43.6964 56.651 44.1004 57.1493 43.7652L65.9249 37.9477H81.3394C82.1654 37.9477 82.8357 37.2759 82.8357 36.4514V18.4963C82.8357 17.6718 82.1654 17 81.3394 17H39.444C38.6181 17 37.9477 17.6718 37.9477 18.4963V36.4514C37.9477 37.2759 38.6181 37.9477 39.444 37.9477V37.9477ZM67.873 24.4813C67.873 22.0065 69.887 19.9925 72.3618 19.9925H75.3544C77.8292 19.9925 79.8431 22.0065 79.8431 24.4813V30.4664C79.8431 32.9412 77.8292 34.9552 75.3544 34.9552H72.3618C69.887 34.9552 67.873 32.9412 67.873 30.4664V24.4813ZM55.9029 24.4813C55.9029 22.0065 57.9169 19.9925 60.3917 19.9925H64.8805V22.9851H60.3917C59.5658 22.9851 58.8954 23.6569 58.8954 24.4813V25.9776H64.8805V28.9701H58.8954V30.4664C58.8954 31.2908 59.5658 31.9627 60.3917 31.9627H64.8805V34.9552H60.3917C57.9169 34.9552 55.9029 32.9412 55.9029 30.4664V24.4813ZM48.4216 28.9701H45.429C42.9542 28.9701 40.9403 26.9561 40.9403 24.4813C40.9403 22.0065 42.9542 19.9925 45.429 19.9925H48.4216C50.8964 19.9925 52.9104 22.0065 52.9104 24.4813H49.9178C49.9178 23.6569 49.2475 22.9851 48.4216 22.9851H45.429C44.6031 22.9851 43.9328 23.6569 43.9328 24.4813C43.9328 25.3058 44.6031 25.9776 45.429 25.9776H48.4216C50.8964 25.9776 52.9104 27.9916 52.9104 30.4664C52.9104 32.9412 50.8964 34.9552 48.4216 34.9552H45.429C42.9542 34.9552 40.9403 32.9412 40.9403 30.4664H43.9328C43.9328 31.2908 44.6031 31.9627 45.429 31.9627H48.4216C49.2475 31.9627 49.9178 31.2908 49.9178 30.4664C49.9178 29.6419 49.2475 28.9701 48.4216 28.9701Z" fill="white"/>
<path d="M37.8445 60.3573H45.429V57.3648H51.4141V70.8312H57.3991V51.3797H63.3842V70.8312H69.3693V54.3722H75.3543V60.3573H85.8282V46.8909H97.7983V42.4021C97.7983 39.9273 95.7843 37.9133 93.3095 37.9133H85.5633C84.9529 39.6684 83.2995 40.9403 81.3394 40.9403H66.8286L58.8041 46.2595C58.1787 46.6725 57.4545 46.8909 56.7064 46.8909C54.6131 46.8909 52.9103 45.1882 52.9103 43.0949V40.9403H39.444C37.4839 40.9403 35.8305 39.6684 35.22 37.9133H27.4738C24.999 37.9133 22.985 39.9273 22.985 42.4021V50.277C23.9442 50.0286 24.9422 49.8835 25.9776 49.8835C32.0704 49.8835 37.1038 54.462 37.8445 60.3573V60.3573Z" fill="white"/>
<path d="M85.8282 63.3499H75.3543V70.8312H79.8431V73.8237H40.9402V70.8312H45.429V63.3499H37.8445C37.1038 69.2451 32.0704 73.8237 25.9776 73.8237C24.9422 73.8237 23.9442 73.6786 22.985 73.4302V76.8162H97.7983V73.8237H85.8282V63.3499Z" fill="white"/>
<path d="M88.8207 49.8833V70.831H103.783V49.8833H88.8207ZM100.791 67.8385H91.8133V64.846H100.791V67.8385ZM100.791 61.8534H91.8133V58.8609H100.791V61.8534ZM100.791 55.8684H91.8133V52.8758H100.791V55.8684Z" fill="white"/>
<path d="M22.985 84.2974C22.985 86.7722 24.999 88.7862 27.4738 88.7862H93.3095C95.7843 88.7862 97.7983 86.7722 97.7983 84.2974V79.8086H22.985V84.2974ZM66.3767 82.8011C67.2027 82.8011 67.873 83.4715 67.873 84.2974C67.873 85.1233 67.2027 85.7937 66.3767 85.7937C65.5508 85.7937 64.8805 85.1233 64.8805 84.2974C64.8805 83.4715 65.5508 82.8011 66.3767 82.8011ZM60.3917 82.8011C61.2176 82.8011 61.8879 83.4715 61.8879 84.2974C61.8879 85.1233 61.2176 85.7937 60.3917 85.7937C59.5657 85.7937 58.8954 85.1233 58.8954 84.2974C58.8954 83.4715 59.5657 82.8011 60.3917 82.8011ZM54.4066 82.8011C55.2326 82.8011 55.9029 83.4715 55.9029 84.2974C55.9029 85.1233 55.2326 85.7937 54.4066 85.7937C53.5807 85.7937 52.9103 85.1233 52.9103 84.2974C52.9103 83.4715 53.5807 82.8011 54.4066 82.8011Z" fill="white"/>
</svg>
