<svg width="120" height="120" viewBox="0 0 120 120" fill="none" xmlns="http://www.w3.org/2000/svg">
<circle cx="60" cy="60" r="60" fill="#101C54"/>
<path d="M57 52V97.9846C57 99.6471 58.346 101 60 101C61.654 101 63 99.6471 63 97.9846V52C62.036 52.2345 61.0347 52.3719 60 52.3719C58.9653 52.3719 57.964 52.2339 57 52Z" fill="white"/>
<path d="M59.5 49C64.7467 49 69 44.9706 69 40C69 35.0294 64.7467 31 59.5 31C54.2533 31 50 35.0294 50 40C50 44.9706 54.2533 49 59.5 49Z" fill="white"/>
<path d="M57 22.0857V28C57.964 27.76 58.9653 27.6194 60 27.6194C61.0347 27.6194 62.036 27.7607 63 28V22.0857C63 20.3845 61.654 19 60 19C58.346 19 57 20.3845 57 22.0857Z" fill="white"/>
<path d="M30 92V97.9143C30 99.6155 31.346 101 33 101C34.654 101 36 99.6155 36 97.9143V92C35.036 92.24 34.0347 92.3806 33 92.3806C31.9653 92.3806 30.964 92.2393 30 92Z" fill="white"/>
<path d="M30 22.0154V68C30.964 67.7655 31.9653 67.6281 33 67.6281C34.0347 67.6281 35.036 67.7661 36 68V22.0154C36 20.3529 34.654 19 33 19C31.346 19 30 20.3529 30 22.0154Z" fill="white"/>
<path d="M33.5 89C38.7467 89 43 84.9706 43 80C43 75.0294 38.7467 71 33.5 71C28.2533 71 24 75.0294 24 80C24 84.9706 28.2533 89 33.5 89Z" fill="white"/>
<path d="M86.5 69C91.7467 69 96 64.9706 96 60C96 55.0294 91.7467 51 86.5 51C81.2533 51 77 55.0294 77 60C77 64.9706 81.2533 69 86.5 69Z" fill="white"/>
<path d="M90 48V22.0261C90 20.3577 88.654 19 87 19C85.346 19 84 20.3577 84 22.0261V48C84.964 47.7646 85.9653 47.6268 87 47.6268C88.0347 47.6268 89.036 47.7653 90 48Z" fill="white"/>
<path d="M84 72V97.9739C84 99.6423 85.346 101 87 101C88.654 101 90 99.6423 90 97.9739V72C89.036 72.2354 88.0347 72.3732 87 72.3732C85.9653 72.3732 84.964 72.2347 84 72Z" fill="white"/>
</svg>
