<svg width="120" height="120" viewBox="0 0 120 120" fill="none" xmlns="http://www.w3.org/2000/svg">
<circle cx="60" cy="60" r="60" fill="#101C54"/>
<path d="M108.629 51.2372L106.102 46.9157C105.446 45.7097 103.879 45.3077 102.666 45.9609L98.3713 48.4735C96.9563 47.2674 95.3899 46.3631 93.6215 45.7097V42.2928C93.6215 40.8856 92.51 39.7803 91.095 39.7803H86.0421C84.6271 39.7803 83.5156 40.8856 83.5156 42.2928V45.7098C81.7472 46.3631 80.1808 47.2676 78.7658 48.4736L73.1064 45.2576L68.0535 54.0012L73.7128 57.1171C73.5108 58.0216 73.4096 58.9261 73.4096 59.8808C73.4096 60.8356 73.5108 61.7401 73.6623 62.6446L68.0535 65.7602L73.1064 74.5038L78.7658 71.2877C80.1808 72.4941 81.7472 73.3984 83.5156 74.0517V77.4682C83.5156 78.875 84.6271 79.9807 86.0421 79.9807H91.095C92.51 79.9807 93.6215 78.875 93.6215 77.4682V74.0512C95.3899 73.3979 96.9563 72.4934 98.3713 71.2872L102.666 73.7997C103.879 74.453 105.445 74.0512 106.102 72.845L108.629 68.5234C109.336 67.3174 108.932 65.7596 107.719 65.0561L103.475 62.6443C103.626 61.7398 103.727 60.8353 103.727 59.8805C103.727 58.9257 103.626 58.0212 103.424 57.1167L107.719 54.7045C108.932 54.001 109.336 52.4432 108.629 51.2372ZM97.9164 56.614L87.8104 66.6642C87.3558 67.1668 86.6989 67.4181 86.0421 67.4181C85.3852 67.4181 84.7283 67.1668 84.2737 66.6642L79.2207 61.6391C78.2101 60.6843 78.2101 59.0763 79.2207 58.1216C80.1808 57.1167 81.7974 57.1167 82.7576 58.1216L86.0422 61.3376L94.3798 53.0965C95.3399 52.0917 96.9565 52.0917 97.9167 53.0965C98.9271 54.0513 98.9271 55.6593 97.9164 56.614Z" fill="white"/>
<path d="M63.4856 67.9392L57.9475 71.0862C56.5325 69.8802 54.9661 68.9759 53.1977 68.3225V62.3931H43.0918V68.3226C41.3234 68.9759 39.757 69.8804 38.342 71.0864L34.0471 68.5739C32.8341 67.9206 31.2678 68.3226 30.6111 69.5286L28.0846 73.8502C27.3772 75.0562 27.7811 76.614 28.9942 77.3175L33.289 79.7295C33.0871 80.634 32.9858 81.5385 32.9858 82.4933C32.9858 83.4481 33.0871 84.3526 33.2385 85.2571L28.9942 87.6689C27.7811 88.3724 27.3772 89.9302 28.0846 91.1362L30.6111 95.4578C31.2677 96.6641 32.8341 97.0658 34.0471 96.4125L38.342 93.9C39.757 95.1062 41.3234 96.0107 43.0918 96.664V100.081C43.0918 101.488 44.2033 102.761 45.6183 102.761H50.6712C52.0862 102.761 53.1977 101.488 53.1977 100.081V96.664C54.9661 96.0107 56.5325 95.1062 57.9475 93.9L62.2424 96.4125C63.4554 97.0658 65.0217 96.664 65.6784 95.4578L68.2049 91.1362C68.9123 89.9302 68.5084 88.3724 67.2954 87.6689L63.051 85.2571C63.2024 84.3526 63.3037 83.4481 63.3037 82.4933C63.3037 81.5385 63.2024 80.634 63.0005 79.7295L68.5364 76.6818L63.4856 67.9392ZM57.5104 79.2446L47.4045 89.2947C46.911 89.7855 46.2645 90.0309 45.6183 90.0309C44.972 90.0309 44.3254 89.7855 43.832 89.2947L38.7791 84.2697C37.7922 83.2883 37.7922 81.6982 38.7791 80.7168C39.7659 79.7354 41.3648 79.7354 42.3517 80.7168L45.6183 83.9655L53.938 75.6917C54.9248 74.7103 56.5238 74.7103 57.5106 75.6917C58.4975 76.6731 58.4975 78.2632 57.5104 79.2446Z" fill="white"/>
<path d="M53.1977 57.368V51.4384C54.9661 50.7851 56.5325 49.8806 57.9475 48.6744L63.4859 51.8218L68.5367 43.0785L63.051 40.0315C63.2024 39.127 63.3037 38.2225 63.3037 37.2677C63.3037 36.313 63.2024 35.4085 63.0005 34.5039L67.2954 32.0918C68.5084 31.3882 68.9123 29.8305 68.2049 28.6245L65.6784 24.3029C65.0219 23.0969 63.4554 22.6949 62.2424 23.3482L57.9475 25.8607C56.5325 24.6547 54.9661 23.7503 53.1977 23.0969V19.5125C53.1977 18.1053 52.0862 17 50.6712 17H45.6183C44.2033 17 43.0918 18.1053 43.0918 19.5125V23.0971C41.3234 23.7503 39.757 24.6548 38.342 25.8609L34.0471 23.3483C32.8341 22.6951 31.2678 23.0971 30.6111 24.3031L28.0846 28.6246C27.3772 29.8306 27.7811 31.3884 28.9942 32.0919L33.289 34.5039C33.0871 35.4085 32.9858 36.313 32.9858 37.2677C32.9858 38.2225 33.0871 39.127 33.2385 40.0315L28.9942 42.4434C27.7811 43.1469 27.3772 44.7046 28.0846 45.9107L30.6111 50.2322C31.2677 51.4386 32.8341 51.8402 34.0471 51.187L38.342 48.6744C39.757 49.8806 41.3234 50.7851 43.0918 51.4384V57.368H53.1977ZM38.7969 39.0263C37.7863 38.0716 37.7863 36.4636 38.7969 35.5088C39.757 34.5039 41.3736 34.5039 42.3338 35.5088L45.6184 38.7248L53.956 30.4837C54.9161 29.4789 56.5327 29.4789 57.4929 30.4837C58.5035 31.4385 58.5035 33.0465 57.4929 34.0013L47.387 44.0514C46.932 44.5541 46.2752 44.8053 45.6183 44.8053C44.9614 44.8053 44.3045 44.5541 43.8499 44.0514L38.7969 39.0263Z" fill="white"/>
</svg>
